<svg xmlns="http://www.w3.org/2000/svg" viewBox="0 0 96 96">
  <defs>
    <linearGradient id="bg" x1="12" x2="84" y1="10" y2="88" gradientUnits="userSpaceOnUse">
      <stop stop-color="#6d5efc"/>
      <stop offset="1" stop-color="#2ce3ff"/>
    </linearGradient>
  </defs>
  <rect width="96" height="96" rx="28" fill="#08101f"/>
  <rect x="8" y="8" width="80" height="80" rx="24" fill="url(#bg)" opacity=".18"/>
  <circle cx="48" cy="39" r="16.5" fill="#7d4a34"/>
  <path d="M27 77c5.2-12.1 13.5-18.5 21-18.5S63.8 64.9 69 77" fill="#4f3a8c"/>
  <path d="M32 39c0-11.6 7.2-21 16.1-21 8.3 0 14.9 6.3 16.6 15.2-3.5.8-7 .8-10.5-.1-8.3-2.1-15.1-7.8-18.8-15.4-2.3 3.4-3.4 8.2-3.4 13.3v8Z" fill="#0d1322"/>
  <circle cx="72" cy="70" r="7" fill="#2ce3ff"/>
</svg>
