<svg xmlns="http://www.w3.org/2000/svg" viewBox="0 0 96 96">
  <defs>
    <linearGradient id="bg" x1="6" x2="88" y1="8" y2="90" gradientUnits="userSpaceOnUse">
      <stop stop-color="#4fe5ff"/>
      <stop offset="1" stop-color="#5272ff"/>
    </linearGradient>
  </defs>
  <rect width="96" height="96" rx="28" fill="#08101f"/>
  <rect x="8" y="8" width="80" height="80" rx="24" fill="url(#bg)" opacity=".2"/>
  <circle cx="48" cy="37" r="17" fill="#f2c8ab"/>
  <path d="M27 77c4.5-12.2 13.2-18.8 21-18.8S64.5 64.8 69 77" fill="#24345d"/>
  <path d="M31 38c0-10.5 7.4-19.4 17.1-19.4 9.4 0 17.4 8.4 17.4 18.7 0 1.7-.2 3-.7 4.3-4.5-.3-8.9-1.8-12.7-4.3-4.1-2.7-7.4-6.3-9.5-10.5-7 1.5-10.6 7-10.6 11.2Z" fill="#101523"/>
  <rect x="62" y="18" width="11" height="11" rx="4" fill="#8f73ff"/>
</svg>
